<mxfile host="app.diagrams.net" modified="2020-11-09T10:19:03.842Z" agent="5.0 (Windows NT 10.0; Win64; x64) AppleWebKit/537.36 (KHTML, like Gecko) Chrome/86.0.4240.183 Safari/537.36" etag="pwaEi1yW2vtS_QRXkdBC" version="13.9.2" type="github">
  <diagram id="wGbHAm15oK983sHC9-Yr" name="Page-1">
    <mxGraphModel dx="593" dy="281" grid="1" gridSize="10" guides="1" tooltips="1" connect="1" arrows="1" fold="1" page="1" pageScale="1" pageWidth="6000" pageHeight="6000" math="0" shadow="0">
      <root>
        <mxCell id="0" />
        <mxCell id="1" parent="0" />
        <mxCell id="VCjqb7YWoMUJ2KnElUuH-1" value="&lt;font style=&quot;font-size: 26px&quot;&gt;Diet&lt;/font&gt;" style="rounded=0;whiteSpace=wrap;html=1;" vertex="1" parent="1">
          <mxGeometry x="3130" y="600" width="120" height="60" as="geometry" />
        </mxCell>
        <mxCell id="VCjqb7YWoMUJ2KnElUuH-2" value="&lt;font style=&quot;font-size: 26px&quot;&gt;Yoga&lt;/font&gt;" style="rounded=0;whiteSpace=wrap;html=1;" vertex="1" parent="1">
          <mxGeometry x="4280" y="600" width="120" height="60" as="geometry" />
        </mxCell>
        <mxCell id="VCjqb7YWoMUJ2KnElUuH-3" value="&lt;font style=&quot;font-size: 26px&quot;&gt;Exercise&lt;/font&gt;" style="rounded=0;whiteSpace=wrap;html=1;" vertex="1" parent="1">
          <mxGeometry x="3650" y="600" width="120" height="60" as="geometry" />
        </mxCell>
        <mxCell id="VCjqb7YWoMUJ2KnElUuH-6" value="Blog" style="rounded=0;whiteSpace=wrap;html=1;" vertex="1" parent="1">
          <mxGeometry x="5400" y="600" width="120" height="60" as="geometry" />
        </mxCell>
        <mxCell id="VCjqb7YWoMUJ2KnElUuH-15" value="" style="rounded=0;whiteSpace=wrap;html=1;" vertex="1" parent="1">
          <mxGeometry x="4776.32" y="600" width="123.68" height="60" as="geometry" />
        </mxCell>
        <mxCell id="VCjqb7YWoMUJ2KnElUuH-16" value="&lt;font style=&quot;font-size: 24px;&quot;&gt;Product&lt;/font&gt;&lt;font style=&quot;font-size: 24px;&quot;&gt;&lt;br style=&quot;font-size: 24px;&quot;&gt;&lt;/font&gt;" style="text;html=1;strokeColor=none;fillColor=none;align=center;verticalAlign=middle;whiteSpace=wrap;rounded=0;fontStyle=0;fontSize=24;" vertex="1" parent="1">
          <mxGeometry x="4815.5" y="620" width="40" height="20" as="geometry" />
        </mxCell>
        <mxCell id="VCjqb7YWoMUJ2KnElUuH-17" value="" style="ellipse;whiteSpace=wrap;html=1;" vertex="1" parent="1">
          <mxGeometry x="4630" y="705" width="100" height="40" as="geometry" />
        </mxCell>
        <mxCell id="VCjqb7YWoMUJ2KnElUuH-18" value="" style="ellipse;whiteSpace=wrap;html=1;" vertex="1" parent="1">
          <mxGeometry x="4640" y="625" width="80" height="40" as="geometry" />
        </mxCell>
        <mxCell id="VCjqb7YWoMUJ2KnElUuH-19" value="" style="ellipse;whiteSpace=wrap;html=1;" vertex="1" parent="1">
          <mxGeometry x="4950" y="625" width="90" height="40" as="geometry" />
        </mxCell>
        <mxCell id="VCjqb7YWoMUJ2KnElUuH-20" value="" style="ellipse;whiteSpace=wrap;html=1;" vertex="1" parent="1">
          <mxGeometry x="4950" y="540" width="90" height="40" as="geometry" />
        </mxCell>
        <mxCell id="VCjqb7YWoMUJ2KnElUuH-21" value="" style="ellipse;whiteSpace=wrap;html=1;" vertex="1" parent="1">
          <mxGeometry x="4661" y="540" width="90" height="30" as="geometry" />
        </mxCell>
        <mxCell id="VCjqb7YWoMUJ2KnElUuH-22" value="" style="ellipse;whiteSpace=wrap;html=1;" vertex="1" parent="1">
          <mxGeometry x="4950" y="705" width="90" height="40" as="geometry" />
        </mxCell>
        <mxCell id="VCjqb7YWoMUJ2KnElUuH-23" value="&lt;span id=&quot;docs-internal-guid-52407e8a-7fff-cbf3-2536-1fac4d719183&quot;&gt;&lt;span style=&quot;font-size: 14pt ; font-family: &amp;#34;times new roman&amp;#34; ; background-color: transparent ; vertical-align: baseline&quot;&gt;Product_Id&lt;/span&gt;&lt;/span&gt;" style="text;html=1;strokeColor=none;fillColor=none;align=center;verticalAlign=middle;whiteSpace=wrap;rounded=0;" vertex="1" parent="1">
          <mxGeometry x="4659.32" y="715" width="40" height="20" as="geometry" />
        </mxCell>
        <mxCell id="VCjqb7YWoMUJ2KnElUuH-24" value="&lt;span id=&quot;docs-internal-guid-77ab3239-7fff-6653-dc07-70a4567c1364&quot;&gt;&lt;span style=&quot;font-size: 14pt ; font-family: &amp;#34;times new roman&amp;#34; ; background-color: transparent ; vertical-align: baseline&quot;&gt;Price&lt;/span&gt;&lt;/span&gt;" style="text;html=1;strokeColor=none;fillColor=none;align=center;verticalAlign=middle;whiteSpace=wrap;rounded=0;" vertex="1" parent="1">
          <mxGeometry x="4659.32" y="635" width="40" height="20" as="geometry" />
        </mxCell>
        <mxCell id="VCjqb7YWoMUJ2KnElUuH-25" value="&lt;span id=&quot;docs-internal-guid-4e54380a-7fff-bb57-83b4-be8a0f64f4e9&quot;&gt;&lt;span style=&quot;font-size: 14pt ; font-family: &amp;#34;times new roman&amp;#34; ; background-color: transparent ; vertical-align: baseline&quot;&gt;Stock&lt;/span&gt;&lt;/span&gt;" style="text;html=1;strokeColor=none;fillColor=none;align=center;verticalAlign=middle;whiteSpace=wrap;rounded=0;" vertex="1" parent="1">
          <mxGeometry x="4975" y="715" width="40" height="20" as="geometry" />
        </mxCell>
        <mxCell id="VCjqb7YWoMUJ2KnElUuH-26" value="&lt;span id=&quot;docs-internal-guid-1fa22a7b-7fff-ead4-82f6-f13e5b7c12e8&quot;&gt;&lt;span style=&quot;font-size: 14pt ; font-family: &amp;#34;times new roman&amp;#34; ; background-color: transparent ; vertical-align: baseline&quot;&gt;Sold&lt;/span&gt;&lt;/span&gt;" style="text;html=1;strokeColor=none;fillColor=none;align=center;verticalAlign=middle;whiteSpace=wrap;rounded=0;" vertex="1" parent="1">
          <mxGeometry x="4967.5" y="635" width="55" height="20" as="geometry" />
        </mxCell>
        <mxCell id="VCjqb7YWoMUJ2KnElUuH-27" value="&lt;span id=&quot;docs-internal-guid-fe8abb5e-7fff-1b7b-80ea-8a018e37618a&quot;&gt;&lt;span style=&quot;font-size: 14pt ; font-family: &amp;#34;times new roman&amp;#34; ; background-color: transparent ; vertical-align: baseline&quot;&gt;T_Id&lt;/span&gt;&lt;/span&gt;" style="text;html=1;strokeColor=none;fillColor=none;align=center;verticalAlign=middle;whiteSpace=wrap;rounded=0;" vertex="1" parent="1">
          <mxGeometry x="4975" y="550" width="40" height="20" as="geometry" />
        </mxCell>
        <mxCell id="VCjqb7YWoMUJ2KnElUuH-28" value="&lt;span id=&quot;docs-internal-guid-84cdcf9b-7fff-4355-09eb-947d76654720&quot;&gt;&lt;span style=&quot;font-size: 14pt ; font-family: &amp;#34;times new roman&amp;#34; ; background-color: transparent ; vertical-align: baseline&quot;&gt;Detail&lt;/span&gt;&lt;/span&gt;" style="text;html=1;strokeColor=none;fillColor=none;align=center;verticalAlign=middle;whiteSpace=wrap;rounded=0;" vertex="1" parent="1">
          <mxGeometry x="4686" y="545" width="40" height="20" as="geometry" />
        </mxCell>
        <mxCell id="VCjqb7YWoMUJ2KnElUuH-33" value="" style="endArrow=none;html=1;exitX=1;exitY=0.5;exitDx=0;exitDy=0;entryX=0;entryY=0.5;entryDx=0;entryDy=0;" edge="1" parent="1" source="VCjqb7YWoMUJ2KnElUuH-15" target="VCjqb7YWoMUJ2KnElUuH-19">
          <mxGeometry width="50" height="50" relative="1" as="geometry">
            <mxPoint x="4920" y="755" as="sourcePoint" />
            <mxPoint x="4940" y="375" as="targetPoint" />
          </mxGeometry>
        </mxCell>
        <mxCell id="VCjqb7YWoMUJ2KnElUuH-34" value="" style="endArrow=none;html=1;exitX=0.25;exitY=1;exitDx=0;exitDy=0;entryX=1;entryY=0.5;entryDx=0;entryDy=0;" edge="1" parent="1" source="VCjqb7YWoMUJ2KnElUuH-15" target="VCjqb7YWoMUJ2KnElUuH-17">
          <mxGeometry width="50" height="50" relative="1" as="geometry">
            <mxPoint x="4910" y="485" as="sourcePoint" />
            <mxPoint x="4910" y="345" as="targetPoint" />
          </mxGeometry>
        </mxCell>
        <mxCell id="VCjqb7YWoMUJ2KnElUuH-35" value="" style="endArrow=none;html=1;entryX=1;entryY=0.5;entryDx=0;entryDy=0;" edge="1" parent="1" source="VCjqb7YWoMUJ2KnElUuH-15" target="VCjqb7YWoMUJ2KnElUuH-18">
          <mxGeometry width="50" height="50" relative="1" as="geometry">
            <mxPoint x="4777" y="645" as="sourcePoint" />
            <mxPoint x="4809.17" y="455" as="targetPoint" />
          </mxGeometry>
        </mxCell>
        <mxCell id="VCjqb7YWoMUJ2KnElUuH-36" value="" style="endArrow=none;html=1;exitX=0.25;exitY=0;exitDx=0;exitDy=0;entryX=1;entryY=0.5;entryDx=0;entryDy=0;" edge="1" parent="1" source="VCjqb7YWoMUJ2KnElUuH-15" target="VCjqb7YWoMUJ2KnElUuH-21">
          <mxGeometry width="50" height="50" relative="1" as="geometry">
            <mxPoint x="4820" y="590" as="sourcePoint" />
            <mxPoint x="4820" y="450" as="targetPoint" />
          </mxGeometry>
        </mxCell>
        <mxCell id="VCjqb7YWoMUJ2KnElUuH-37" value="" style="endArrow=none;html=1;exitX=0.75;exitY=1;exitDx=0;exitDy=0;entryX=0.259;entryY=0.104;entryDx=0;entryDy=0;entryPerimeter=0;" edge="1" parent="1" source="VCjqb7YWoMUJ2KnElUuH-15" target="VCjqb7YWoMUJ2KnElUuH-22">
          <mxGeometry width="50" height="50" relative="1" as="geometry">
            <mxPoint x="4839.58" y="625" as="sourcePoint" />
            <mxPoint x="4839.58" y="485" as="targetPoint" />
          </mxGeometry>
        </mxCell>
        <mxCell id="VCjqb7YWoMUJ2KnElUuH-38" value="" style="endArrow=none;html=1;exitX=1;exitY=0.5;exitDx=0;exitDy=0;entryX=0;entryY=0.5;entryDx=0;entryDy=0;" edge="1" parent="1" source="VCjqb7YWoMUJ2KnElUuH-15" target="VCjqb7YWoMUJ2KnElUuH-20">
          <mxGeometry width="50" height="50" relative="1" as="geometry">
            <mxPoint x="4920" y="675" as="sourcePoint" />
            <mxPoint x="4920" y="535" as="targetPoint" />
          </mxGeometry>
        </mxCell>
        <mxCell id="VCjqb7YWoMUJ2KnElUuH-39" value="1" style="text;html=1;align=center;verticalAlign=middle;resizable=0;points=[];autosize=1;" vertex="1" parent="1">
          <mxGeometry x="4850" y="670" width="20" height="20" as="geometry" />
        </mxCell>
        <mxCell id="VCjqb7YWoMUJ2KnElUuH-205" value="REVIEW_ID" style="ellipse;whiteSpace=wrap;html=1;align=center;fontStyle=4;" vertex="1" parent="1">
          <mxGeometry x="4660" y="920" width="100" height="40" as="geometry" />
        </mxCell>
        <mxCell id="VCjqb7YWoMUJ2KnElUuH-206" value="STAR" style="ellipse;whiteSpace=wrap;html=1;align=center;" vertex="1" parent="1">
          <mxGeometry x="4690" y="990" width="100" height="40" as="geometry" />
        </mxCell>
        <mxCell id="VCjqb7YWoMUJ2KnElUuH-207" value="LIKE_DISLIKE" style="ellipse;whiteSpace=wrap;html=1;align=center;" vertex="1" parent="1">
          <mxGeometry x="4440" y="990" width="100" height="40" as="geometry" />
        </mxCell>
        <mxCell id="VCjqb7YWoMUJ2KnElUuH-208" value="TITLE" style="ellipse;whiteSpace=wrap;html=1;align=center;" vertex="1" parent="1">
          <mxGeometry x="4620" y="880" width="100" height="40" as="geometry" />
        </mxCell>
        <mxCell id="VCjqb7YWoMUJ2KnElUuH-209" value="DESCRIPTION" style="ellipse;whiteSpace=wrap;html=1;align=center;" vertex="1" parent="1">
          <mxGeometry x="4530" y="860" width="100" height="40" as="geometry" />
        </mxCell>
        <mxCell id="VCjqb7YWoMUJ2KnElUuH-210" value="IMAGE" style="ellipse;whiteSpace=wrap;html=1;align=center;" vertex="1" parent="1">
          <mxGeometry x="4460" y="891" width="100" height="40" as="geometry" />
        </mxCell>
        <mxCell id="VCjqb7YWoMUJ2KnElUuH-211" value="DATE_TIME" style="ellipse;whiteSpace=wrap;html=1;align=center;" vertex="1" parent="1">
          <mxGeometry x="4430" y="938" width="100" height="40" as="geometry" />
        </mxCell>
        <mxCell id="VCjqb7YWoMUJ2KnElUuH-212" value="CERTIFIED BUYER_NAME" style="ellipse;whiteSpace=wrap;html=1;align=center;" vertex="1" parent="1">
          <mxGeometry x="4520" y="1137" width="100" height="40" as="geometry" />
        </mxCell>
        <mxCell id="VCjqb7YWoMUJ2KnElUuH-213" value="QUESTION" style="ellipse;whiteSpace=wrap;html=1;align=center;" vertex="1" parent="1">
          <mxGeometry x="4550" y="1092" width="100" height="40" as="geometry" />
        </mxCell>
        <mxCell id="VCjqb7YWoMUJ2KnElUuH-214" value="ANSWER" style="ellipse;whiteSpace=wrap;html=1;align=center;" vertex="1" parent="1">
          <mxGeometry x="4650" y="1070" width="100" height="40" as="geometry" />
        </mxCell>
        <mxCell id="VCjqb7YWoMUJ2KnElUuH-215" value="LIKE_DISLIKE" style="ellipse;whiteSpace=wrap;html=1;align=center;" vertex="1" parent="1">
          <mxGeometry x="4741" y="1100" width="100" height="40" as="geometry" />
        </mxCell>
        <mxCell id="VCjqb7YWoMUJ2KnElUuH-216" value="" style="endArrow=none;html=1;rounded=0;exitX=1;exitY=0.75;exitDx=0;exitDy=0;" edge="1" target="VCjqb7YWoMUJ2KnElUuH-206" parent="1">
          <mxGeometry relative="1" as="geometry">
            <mxPoint x="4660" y="988" as="sourcePoint" />
            <mxPoint x="4770" y="920" as="targetPoint" />
          </mxGeometry>
        </mxCell>
        <mxCell id="VCjqb7YWoMUJ2KnElUuH-217" value="" style="endArrow=none;html=1;rounded=0;exitX=1;exitY=0;exitDx=0;exitDy=0;" edge="1" source="VCjqb7YWoMUJ2KnElUuH-207" target="VCjqb7YWoMUJ2KnElUuH-233" parent="1">
          <mxGeometry relative="1" as="geometry">
            <mxPoint x="4610" y="920" as="sourcePoint" />
            <mxPoint x="4550" y="978" as="targetPoint" />
          </mxGeometry>
        </mxCell>
        <mxCell id="VCjqb7YWoMUJ2KnElUuH-218" value="" style="endArrow=none;html=1;rounded=0;exitX=0.5;exitY=0;exitDx=0;exitDy=0;" edge="1" target="VCjqb7YWoMUJ2KnElUuH-211" parent="1">
          <mxGeometry relative="1" as="geometry">
            <mxPoint x="4605" y="958" as="sourcePoint" />
            <mxPoint x="4770" y="920" as="targetPoint" />
          </mxGeometry>
        </mxCell>
        <mxCell id="VCjqb7YWoMUJ2KnElUuH-219" value="" style="endArrow=none;html=1;rounded=0;exitX=0.5;exitY=0;exitDx=0;exitDy=0;entryX=1;entryY=1;entryDx=0;entryDy=0;" edge="1" target="VCjqb7YWoMUJ2KnElUuH-210" parent="1">
          <mxGeometry relative="1" as="geometry">
            <mxPoint x="4605" y="958" as="sourcePoint" />
            <mxPoint x="4770" y="920" as="targetPoint" />
          </mxGeometry>
        </mxCell>
        <mxCell id="VCjqb7YWoMUJ2KnElUuH-220" value="" style="endArrow=none;html=1;rounded=0;exitX=0.5;exitY=0;exitDx=0;exitDy=0;entryX=0.692;entryY=1.005;entryDx=0;entryDy=0;entryPerimeter=0;" edge="1" target="VCjqb7YWoMUJ2KnElUuH-209" parent="1">
          <mxGeometry relative="1" as="geometry">
            <mxPoint x="4605" y="958" as="sourcePoint" />
            <mxPoint x="4770" y="920" as="targetPoint" />
          </mxGeometry>
        </mxCell>
        <mxCell id="VCjqb7YWoMUJ2KnElUuH-221" value="" style="endArrow=none;html=1;rounded=0;exitX=0.5;exitY=0;exitDx=0;exitDy=0;" edge="1" parent="1">
          <mxGeometry relative="1" as="geometry">
            <mxPoint x="4605" y="958" as="sourcePoint" />
            <mxPoint x="4650" y="920" as="targetPoint" />
          </mxGeometry>
        </mxCell>
        <mxCell id="VCjqb7YWoMUJ2KnElUuH-222" value="" style="endArrow=none;html=1;rounded=0;exitX=0.5;exitY=0;exitDx=0;exitDy=0;entryX=0.08;entryY=0.785;entryDx=0;entryDy=0;entryPerimeter=0;" edge="1" target="VCjqb7YWoMUJ2KnElUuH-205" parent="1">
          <mxGeometry relative="1" as="geometry">
            <mxPoint x="4605" y="958" as="sourcePoint" />
            <mxPoint x="4770" y="920" as="targetPoint" />
          </mxGeometry>
        </mxCell>
        <mxCell id="VCjqb7YWoMUJ2KnElUuH-223" value="" style="endArrow=none;html=1;rounded=0;exitX=0.728;exitY=0.1;exitDx=0;exitDy=0;exitPerimeter=0;" edge="1" source="VCjqb7YWoMUJ2KnElUuH-212" parent="1">
          <mxGeometry relative="1" as="geometry">
            <mxPoint x="4690" y="972" as="sourcePoint" />
            <mxPoint x="4685" y="1139" as="targetPoint" />
          </mxGeometry>
        </mxCell>
        <mxCell id="VCjqb7YWoMUJ2KnElUuH-224" value="" style="endArrow=none;html=1;rounded=0;exitX=0.5;exitY=0;exitDx=0;exitDy=0;entryX=1;entryY=1;entryDx=0;entryDy=0;" edge="1" target="VCjqb7YWoMUJ2KnElUuH-213" parent="1">
          <mxGeometry relative="1" as="geometry">
            <mxPoint x="4685" y="1140" as="sourcePoint" />
            <mxPoint x="4850" y="972" as="targetPoint" />
          </mxGeometry>
        </mxCell>
        <mxCell id="VCjqb7YWoMUJ2KnElUuH-225" value="" style="endArrow=none;html=1;rounded=0;exitX=0.5;exitY=0;exitDx=0;exitDy=0;entryX=0.428;entryY=1.035;entryDx=0;entryDy=0;entryPerimeter=0;" edge="1" target="VCjqb7YWoMUJ2KnElUuH-214" parent="1">
          <mxGeometry relative="1" as="geometry">
            <mxPoint x="4685" y="1140" as="sourcePoint" />
            <mxPoint x="4850" y="972" as="targetPoint" />
          </mxGeometry>
        </mxCell>
        <mxCell id="VCjqb7YWoMUJ2KnElUuH-226" value="" style="endArrow=none;html=1;rounded=0;exitX=0.5;exitY=0;exitDx=0;exitDy=0;entryX=0;entryY=0.5;entryDx=0;entryDy=0;" edge="1" target="VCjqb7YWoMUJ2KnElUuH-215" parent="1">
          <mxGeometry relative="1" as="geometry">
            <mxPoint x="4685" y="1140" as="sourcePoint" />
            <mxPoint x="4820" y="1122" as="targetPoint" />
          </mxGeometry>
        </mxCell>
        <mxCell id="VCjqb7YWoMUJ2KnElUuH-227" value="BRAND_NAME" style="ellipse;whiteSpace=wrap;html=1;align=center;" vertex="1" parent="1">
          <mxGeometry x="4699.32" y="1228" width="100" height="40" as="geometry" />
        </mxCell>
        <mxCell id="VCjqb7YWoMUJ2KnElUuH-228" value="CATEGORY_ID" style="ellipse;whiteSpace=wrap;html=1;align=center;fontStyle=4;" vertex="1" parent="1">
          <mxGeometry x="4809.32" y="1220" width="100" height="40" as="geometry" />
        </mxCell>
        <mxCell id="VCjqb7YWoMUJ2KnElUuH-229" value="" style="endArrow=none;html=1;rounded=0;entryX=0.75;entryY=0;entryDx=0;entryDy=0;" edge="1" source="VCjqb7YWoMUJ2KnElUuH-228" parent="1">
          <mxGeometry relative="1" as="geometry">
            <mxPoint x="4769.32" y="1200" as="sourcePoint" />
            <mxPoint x="4831.82" y="1288" as="targetPoint" />
          </mxGeometry>
        </mxCell>
        <mxCell id="VCjqb7YWoMUJ2KnElUuH-230" value="" style="endArrow=none;html=1;rounded=0;exitX=0.25;exitY=0;exitDx=0;exitDy=0;" edge="1" target="VCjqb7YWoMUJ2KnElUuH-227" parent="1">
          <mxGeometry relative="1" as="geometry">
            <mxPoint x="4776.82" y="1288" as="sourcePoint" />
            <mxPoint x="4929.32" y="1200" as="targetPoint" />
          </mxGeometry>
        </mxCell>
        <mxCell id="VCjqb7YWoMUJ2KnElUuH-231" value="BRAND" style="shape=ext;margin=3;double=1;whiteSpace=wrap;html=1;align=center;" vertex="1" parent="1">
          <mxGeometry x="4754.32" y="1288" width="100" height="40" as="geometry" />
        </mxCell>
        <mxCell id="VCjqb7YWoMUJ2KnElUuH-232" value="QNA" style="shape=ext;margin=3;double=1;whiteSpace=wrap;html=1;align=center;" vertex="1" parent="1">
          <mxGeometry x="4640" y="1142" width="100" height="40" as="geometry" />
        </mxCell>
        <mxCell id="VCjqb7YWoMUJ2KnElUuH-233" value="REVIEW" style="shape=ext;margin=3;double=1;whiteSpace=wrap;html=1;align=center;" vertex="1" parent="1">
          <mxGeometry x="4560" y="960" width="100" height="40" as="geometry" />
        </mxCell>
        <mxCell id="VCjqb7YWoMUJ2KnElUuH-234" value="Has" style="shape=rhombus;double=1;perimeter=rhombusPerimeter;whiteSpace=wrap;html=1;align=center;" vertex="1" parent="1">
          <mxGeometry x="4780" y="948" width="120" height="60" as="geometry" />
        </mxCell>
        <mxCell id="VCjqb7YWoMUJ2KnElUuH-235" value="Has" style="shape=rhombus;double=1;perimeter=rhombusPerimeter;whiteSpace=wrap;html=1;align=center;" vertex="1" parent="1">
          <mxGeometry x="4870" y="1129" width="120" height="60" as="geometry" />
        </mxCell>
        <mxCell id="VCjqb7YWoMUJ2KnElUuH-236" value="Has" style="shape=rhombus;double=1;perimeter=rhombusPerimeter;whiteSpace=wrap;html=1;align=center;" vertex="1" parent="1">
          <mxGeometry x="4989.32" y="1278" width="120" height="60" as="geometry" />
        </mxCell>
        <mxCell id="VCjqb7YWoMUJ2KnElUuH-237" value="M" style="text;html=1;strokeColor=none;fillColor=none;align=center;verticalAlign=middle;whiteSpace=wrap;rounded=0;" vertex="1" parent="1">
          <mxGeometry x="4750" y="951" width="40" height="20" as="geometry" />
        </mxCell>
        <mxCell id="VCjqb7YWoMUJ2KnElUuH-238" value="M" style="text;html=1;strokeColor=none;fillColor=none;align=center;verticalAlign=middle;whiteSpace=wrap;rounded=0;" vertex="1" parent="1">
          <mxGeometry x="4830" y="1129" width="40" height="20" as="geometry" />
        </mxCell>
        <mxCell id="VCjqb7YWoMUJ2KnElUuH-239" value="1" style="text;html=1;strokeColor=none;fillColor=none;align=center;verticalAlign=middle;whiteSpace=wrap;rounded=0;" vertex="1" parent="1">
          <mxGeometry x="4869.32" y="1285" width="40" height="20" as="geometry" />
        </mxCell>
        <mxCell id="VCjqb7YWoMUJ2KnElUuH-240" value="" style="shape=link;html=1;rounded=0;endArrow=none;endFill=0;" edge="1" parent="1">
          <mxGeometry relative="1" as="geometry">
            <mxPoint x="4655" y="976.3300000000004" as="sourcePoint" />
            <mxPoint x="4790" y="976" as="targetPoint" />
          </mxGeometry>
        </mxCell>
        <mxCell id="VCjqb7YWoMUJ2KnElUuH-241" value="" style="shape=link;html=1;rounded=0;endArrow=none;endFill=0;entryX=0;entryY=0.5;entryDx=0;entryDy=0;" edge="1" target="VCjqb7YWoMUJ2KnElUuH-235" parent="1">
          <mxGeometry relative="1" as="geometry">
            <mxPoint x="4740" y="1160.9999999999995" as="sourcePoint" />
            <mxPoint x="4900" y="1161" as="targetPoint" />
          </mxGeometry>
        </mxCell>
        <mxCell id="VCjqb7YWoMUJ2KnElUuH-242" value="" style="resizable=0;html=1;align=right;verticalAlign=bottom;" connectable="0" vertex="1" parent="VCjqb7YWoMUJ2KnElUuH-241">
          <mxGeometry x="1" relative="1" as="geometry" />
        </mxCell>
        <mxCell id="VCjqb7YWoMUJ2KnElUuH-243" value="" style="shape=link;html=1;rounded=0;endArrow=none;endFill=0;entryX=0;entryY=0.5;entryDx=0;entryDy=0;" edge="1" source="VCjqb7YWoMUJ2KnElUuH-231" target="VCjqb7YWoMUJ2KnElUuH-236" parent="1">
          <mxGeometry relative="1" as="geometry">
            <mxPoint x="4854.32" y="1308" as="sourcePoint" />
            <mxPoint x="5014.32" y="1308" as="targetPoint" />
          </mxGeometry>
        </mxCell>
        <mxCell id="VCjqb7YWoMUJ2KnElUuH-244" value="" style="resizable=0;html=1;align=right;verticalAlign=bottom;" connectable="0" vertex="1" parent="VCjqb7YWoMUJ2KnElUuH-243">
          <mxGeometry x="1" relative="1" as="geometry" />
        </mxCell>
        <mxCell id="VCjqb7YWoMUJ2KnElUuH-274" value="&lt;font style=&quot;font-size: 12px;&quot;&gt;User&lt;/font&gt;" style="rounded=0;whiteSpace=wrap;html=1;strokeWidth=1;fontSize=12;" vertex="1" parent="1">
          <mxGeometry x="5090" y="191" width="80" height="40" as="geometry" />
        </mxCell>
        <mxCell id="VCjqb7YWoMUJ2KnElUuH-276" value="USER_ID" style="ellipse;whiteSpace=wrap;html=1;align=center;fontStyle=4;strokeWidth=1;fontSize=12;" vertex="1" parent="1">
          <mxGeometry x="4895" y="208" width="100" height="40" as="geometry" />
        </mxCell>
        <mxCell id="VCjqb7YWoMUJ2KnElUuH-277" value="TIMESTAMP" style="ellipse;whiteSpace=wrap;html=1;align=center;strokeWidth=1;fontSize=12;" vertex="1" parent="1">
          <mxGeometry x="5260" y="280" width="100" height="40" as="geometry" />
        </mxCell>
        <mxCell id="VCjqb7YWoMUJ2KnElUuH-278" value="USER_NAME" style="ellipse;whiteSpace=wrap;html=1;align=center;strokeWidth=1;fontSize=12;" vertex="1" parent="1">
          <mxGeometry x="4895" y="140" width="100" height="40" as="geometry" />
        </mxCell>
        <mxCell id="VCjqb7YWoMUJ2KnElUuH-279" value="PASSWORD" style="ellipse;whiteSpace=wrap;html=1;align=center;strokeWidth=1;fontSize=12;" vertex="1" parent="1">
          <mxGeometry x="5250.68" y="88" width="100" height="40" as="geometry" />
        </mxCell>
        <mxCell id="VCjqb7YWoMUJ2KnElUuH-280" value="STATUS" style="ellipse;whiteSpace=wrap;html=1;align=center;strokeWidth=1;fontSize=12;" vertex="1" parent="1">
          <mxGeometry x="5250.68" y="208" width="100" height="40" as="geometry" />
        </mxCell>
        <mxCell id="VCjqb7YWoMUJ2KnElUuH-281" value="ADDRESS" style="ellipse;whiteSpace=wrap;html=1;align=center;strokeWidth=1;fontSize=12;" vertex="1" parent="1">
          <mxGeometry x="4899.32" y="280" width="100" height="40" as="geometry" />
        </mxCell>
        <mxCell id="VCjqb7YWoMUJ2KnElUuH-282" value="" style="endArrow=none;html=1;rounded=0;entryX=0;entryY=0.5;entryDx=0;entryDy=0;strokeWidth=1;fontSize=12;exitX=1;exitY=0.5;exitDx=0;exitDy=0;" edge="1" parent="1" source="VCjqb7YWoMUJ2KnElUuH-274" target="VCjqb7YWoMUJ2KnElUuH-280">
          <mxGeometry relative="1" as="geometry">
            <mxPoint x="5170" y="210" as="sourcePoint" />
            <mxPoint x="5200" y="18" as="targetPoint" />
          </mxGeometry>
        </mxCell>
        <mxCell id="VCjqb7YWoMUJ2KnElUuH-283" value="" style="endArrow=none;html=1;rounded=0;exitX=1;exitY=0.5;exitDx=0;exitDy=0;strokeWidth=1;fontSize=12;" edge="1" parent="1" source="VCjqb7YWoMUJ2KnElUuH-276" target="VCjqb7YWoMUJ2KnElUuH-274">
          <mxGeometry relative="1" as="geometry">
            <mxPoint x="5050" y="-42" as="sourcePoint" />
            <mxPoint x="5140" y="175.2043010752691" as="targetPoint" />
          </mxGeometry>
        </mxCell>
        <mxCell id="VCjqb7YWoMUJ2KnElUuH-284" value="" style="endArrow=none;html=1;rounded=0;exitX=1;exitY=0.5;exitDx=0;exitDy=0;strokeWidth=1;fontSize=12;" edge="1" parent="1" source="VCjqb7YWoMUJ2KnElUuH-278" target="VCjqb7YWoMUJ2KnElUuH-274">
          <mxGeometry relative="1" as="geometry">
            <mxPoint x="5050" y="-42" as="sourcePoint" />
            <mxPoint x="5120" y="188" as="targetPoint" />
          </mxGeometry>
        </mxCell>
        <mxCell id="VCjqb7YWoMUJ2KnElUuH-285" value="" style="endArrow=none;html=1;rounded=0;exitX=0.5;exitY=0;exitDx=0;exitDy=0;strokeWidth=1;fontSize=12;entryX=1;entryY=0.5;entryDx=0;entryDy=0;" edge="1" parent="1" source="VCjqb7YWoMUJ2KnElUuH-274" target="VCjqb7YWoMUJ2KnElUuH-290">
          <mxGeometry relative="1" as="geometry">
            <mxPoint x="5140" y="148" as="sourcePoint" />
            <mxPoint x="4990" y="148" as="targetPoint" />
          </mxGeometry>
        </mxCell>
        <mxCell id="VCjqb7YWoMUJ2KnElUuH-286" value="" style="endArrow=none;html=1;rounded=0;strokeWidth=1;fontSize=12;entryX=0;entryY=0.5;entryDx=0;entryDy=0;exitX=0.5;exitY=0;exitDx=0;exitDy=0;" edge="1" parent="1" target="VCjqb7YWoMUJ2KnElUuH-279" source="VCjqb7YWoMUJ2KnElUuH-274">
          <mxGeometry relative="1" as="geometry">
            <mxPoint x="5101" y="191" as="sourcePoint" />
            <mxPoint x="5210" y="-42" as="targetPoint" />
          </mxGeometry>
        </mxCell>
        <mxCell id="VCjqb7YWoMUJ2KnElUuH-287" value="" style="endArrow=none;html=1;rounded=0;entryX=0;entryY=0.5;entryDx=0;entryDy=0;strokeWidth=1;fontSize=12;" edge="1" parent="1" source="VCjqb7YWoMUJ2KnElUuH-274" target="VCjqb7YWoMUJ2KnElUuH-291">
          <mxGeometry relative="1" as="geometry">
            <mxPoint x="5140" y="148" as="sourcePoint" />
            <mxPoint x="5054.0959374886015" y="85.52431817352863" as="targetPoint" />
          </mxGeometry>
        </mxCell>
        <mxCell id="VCjqb7YWoMUJ2KnElUuH-288" value="" style="endArrow=none;html=1;rounded=0;entryX=1;entryY=0;entryDx=0;entryDy=0;strokeWidth=1;fontSize=12;" edge="1" parent="1" source="VCjqb7YWoMUJ2KnElUuH-274" target="VCjqb7YWoMUJ2KnElUuH-281">
          <mxGeometry relative="1" as="geometry">
            <mxPoint x="5160" y="138" as="sourcePoint" />
            <mxPoint x="5210" y="-42" as="targetPoint" />
          </mxGeometry>
        </mxCell>
        <mxCell id="VCjqb7YWoMUJ2KnElUuH-289" value="" style="endArrow=none;html=1;rounded=0;strokeWidth=1;fontSize=12;entryX=0;entryY=0.5;entryDx=0;entryDy=0;exitX=1;exitY=1;exitDx=0;exitDy=0;" edge="1" parent="1" source="VCjqb7YWoMUJ2KnElUuH-274" target="VCjqb7YWoMUJ2KnElUuH-277">
          <mxGeometry relative="1" as="geometry">
            <mxPoint x="5190.4" y="135.4000000000001" as="sourcePoint" />
            <mxPoint x="5210" y="-42" as="targetPoint" />
          </mxGeometry>
        </mxCell>
        <mxCell id="VCjqb7YWoMUJ2KnElUuH-290" value="EMAIL" style="ellipse;whiteSpace=wrap;html=1;align=center;fontStyle=4;strokeWidth=1;fontSize=12;" vertex="1" parent="1">
          <mxGeometry x="4899.32" y="88" width="100" height="40" as="geometry" />
        </mxCell>
        <mxCell id="VCjqb7YWoMUJ2KnElUuH-291" value="PHONE_NUMBER" style="ellipse;whiteSpace=wrap;html=1;align=center;fontStyle=4;strokeWidth=1;fontSize=12;" vertex="1" parent="1">
          <mxGeometry x="5250.68" y="140" width="114" height="40" as="geometry" />
        </mxCell>
        <mxCell id="VCjqb7YWoMUJ2KnElUuH-296" value="" style="endArrow=none;html=1;rounded=0;strokeWidth=1;fontSize=12;exitX=0.5;exitY=1;exitDx=0;exitDy=0;entryX=0.5;entryY=0;entryDx=0;entryDy=0;" edge="1" parent="1" source="VCjqb7YWoMUJ2KnElUuH-274" target="VCjqb7YWoMUJ2KnElUuH-297">
          <mxGeometry relative="1" as="geometry">
            <mxPoint x="5124.179687499999" y="241" as="sourcePoint" />
            <mxPoint x="5080" y="410" as="targetPoint" />
          </mxGeometry>
        </mxCell>
        <mxCell id="VCjqb7YWoMUJ2KnElUuH-297" value="Buy" style="rhombus;whiteSpace=wrap;html=1;shadow=0;" vertex="1" parent="1">
          <mxGeometry x="5090" y="390" width="80" height="80" as="geometry" />
        </mxCell>
        <mxCell id="VCjqb7YWoMUJ2KnElUuH-298" value="" style="endArrow=none;html=1;rounded=0;strokeWidth=1;fontSize=12;exitX=0.5;exitY=0;exitDx=0;exitDy=0;entryX=0.5;entryY=1;entryDx=0;entryDy=0;" edge="1" parent="1" source="VCjqb7YWoMUJ2KnElUuH-15" target="VCjqb7YWoMUJ2KnElUuH-297">
          <mxGeometry relative="1" as="geometry">
            <mxPoint x="5139.999999999999" y="241" as="sourcePoint" />
            <mxPoint x="5139.999999999999" y="400" as="targetPoint" />
            <Array as="points">
              <mxPoint x="4838" y="520" />
              <mxPoint x="5130" y="520" />
            </Array>
          </mxGeometry>
        </mxCell>
        <mxCell id="VCjqb7YWoMUJ2KnElUuH-300" value="M" style="text;html=1;strokeColor=none;fillColor=none;align=center;verticalAlign=middle;whiteSpace=wrap;rounded=0;" vertex="1" parent="1">
          <mxGeometry x="5120" y="260" width="40" height="20" as="geometry" />
        </mxCell>
        <mxCell id="VCjqb7YWoMUJ2KnElUuH-301" value="1" style="text;html=1;align=center;verticalAlign=middle;resizable=0;points=[];autosize=1;fontSize=12;" vertex="1" parent="1">
          <mxGeometry x="4811" y="570" width="20" height="20" as="geometry" />
        </mxCell>
        <mxCell id="VCjqb7YWoMUJ2KnElUuH-302" value="" style="rounded=0;whiteSpace=wrap;html=1;" vertex="1" parent="1">
          <mxGeometry x="4539.32" y="1762.68" width="90" height="40" as="geometry" />
        </mxCell>
        <mxCell id="VCjqb7YWoMUJ2KnElUuH-304" value="&lt;font style=&quot;font-size: 16px&quot;&gt;Cart&lt;br&gt;&lt;/font&gt;" style="text;html=1;strokeColor=none;fillColor=none;align=center;verticalAlign=middle;whiteSpace=wrap;rounded=0;" vertex="1" parent="1">
          <mxGeometry x="4564.32" y="1772.68" width="40" height="20" as="geometry" />
        </mxCell>
        <mxCell id="VCjqb7YWoMUJ2KnElUuH-305" value="" style="ellipse;whiteSpace=wrap;html=1;" vertex="1" parent="1">
          <mxGeometry x="4369.32" y="1722.68" width="100" height="40" as="geometry" />
        </mxCell>
        <mxCell id="VCjqb7YWoMUJ2KnElUuH-306" value="" style="ellipse;whiteSpace=wrap;html=1;" vertex="1" parent="1">
          <mxGeometry x="4469.32" y="1702.68" width="110" height="40" as="geometry" />
        </mxCell>
        <mxCell id="VCjqb7YWoMUJ2KnElUuH-307" value="" style="ellipse;whiteSpace=wrap;html=1;" vertex="1" parent="1">
          <mxGeometry x="4649.32" y="1712.68" width="150" height="40" as="geometry" />
        </mxCell>
        <mxCell id="VCjqb7YWoMUJ2KnElUuH-308" value="" style="ellipse;whiteSpace=wrap;html=1;" vertex="1" parent="1">
          <mxGeometry x="4539.32" y="1662.68" width="140" height="40" as="geometry" />
        </mxCell>
        <mxCell id="VCjqb7YWoMUJ2KnElUuH-309" value="&lt;span id=&quot;docs-internal-guid-52407e8a-7fff-cbf3-2536-1fac4d719183&quot;&gt;&lt;span style=&quot;font-size: 14pt ; font-family: &amp;#34;times new roman&amp;#34; ; background-color: transparent ; vertical-align: baseline&quot;&gt;Cart_Id&lt;/span&gt;&lt;/span&gt;" style="text;html=1;strokeColor=none;fillColor=none;align=center;verticalAlign=middle;whiteSpace=wrap;rounded=0;" vertex="1" parent="1">
          <mxGeometry x="4399.32" y="1727.68" width="40" height="20" as="geometry" />
        </mxCell>
        <mxCell id="VCjqb7YWoMUJ2KnElUuH-310" value="&lt;span id=&quot;docs-internal-guid-77ab3239-7fff-6653-dc07-70a4567c1364&quot;&gt;&lt;span style=&quot;font-size: 14pt ; font-family: &amp;#34;times new roman&amp;#34; ; background-color: transparent ; vertical-align: baseline&quot;&gt;Product_Id&lt;/span&gt;&lt;/span&gt;" style="text;html=1;strokeColor=none;fillColor=none;align=center;verticalAlign=middle;whiteSpace=wrap;rounded=0;" vertex="1" parent="1">
          <mxGeometry x="4503.32" y="1712.68" width="40" height="20" as="geometry" />
        </mxCell>
        <mxCell id="VCjqb7YWoMUJ2KnElUuH-311" value="&lt;span id=&quot;docs-internal-guid-f2ca6896-7fff-c282-03e5-d2eb94d20334&quot;&gt;&lt;span style=&quot;font-size: 14pt ; font-family: &amp;#34;times new roman&amp;#34; ; background-color: transparent ; vertical-align: baseline&quot;&gt;Total_Amount&lt;/span&gt;&lt;/span&gt;" style="text;html=1;strokeColor=none;fillColor=none;align=center;verticalAlign=middle;whiteSpace=wrap;rounded=0;" vertex="1" parent="1">
          <mxGeometry x="4569.32" y="1672.68" width="95" height="20" as="geometry" />
        </mxCell>
        <mxCell id="VCjqb7YWoMUJ2KnElUuH-312" value="&lt;span id=&quot;docs-internal-guid-baefef16-7fff-118e-0051-b42a2cbbd142&quot;&gt;&lt;span style=&quot;font-size: 14pt ; font-family: &amp;#34;times new roman&amp;#34; ; background-color: transparent ; vertical-align: baseline&quot;&gt;Delivery_Charges&lt;/span&gt;&lt;/span&gt;" style="text;html=1;strokeColor=none;fillColor=none;align=center;verticalAlign=middle;whiteSpace=wrap;rounded=0;" vertex="1" parent="1">
          <mxGeometry x="4708.32" y="1722.68" width="40" height="20" as="geometry" />
        </mxCell>
        <mxCell id="VCjqb7YWoMUJ2KnElUuH-313" value="" style="endArrow=none;html=1;entryX=0.5;entryY=1;entryDx=0;entryDy=0;exitX=0.655;exitY=0.017;exitDx=0;exitDy=0;exitPerimeter=0;" edge="1" parent="1" source="VCjqb7YWoMUJ2KnElUuH-302" target="VCjqb7YWoMUJ2KnElUuH-308">
          <mxGeometry width="50" height="50" relative="1" as="geometry">
            <mxPoint x="4749.32" y="1802.68" as="sourcePoint" />
            <mxPoint x="4799.32" y="1752.68" as="targetPoint" />
          </mxGeometry>
        </mxCell>
        <mxCell id="VCjqb7YWoMUJ2KnElUuH-314" value="" style="endArrow=none;html=1;exitX=0.043;exitY=0.707;exitDx=0;exitDy=0;exitPerimeter=0;entryX=0.75;entryY=0;entryDx=0;entryDy=0;" edge="1" parent="1" source="VCjqb7YWoMUJ2KnElUuH-307" target="VCjqb7YWoMUJ2KnElUuH-302">
          <mxGeometry width="50" height="50" relative="1" as="geometry">
            <mxPoint x="4749.32" y="1802.68" as="sourcePoint" />
            <mxPoint x="4799.32" y="1752.68" as="targetPoint" />
          </mxGeometry>
        </mxCell>
        <mxCell id="VCjqb7YWoMUJ2KnElUuH-315" value="" style="endArrow=none;html=1;entryX=1;entryY=1;entryDx=0;entryDy=0;exitX=0.417;exitY=0.017;exitDx=0;exitDy=0;exitPerimeter=0;" edge="1" parent="1" source="VCjqb7YWoMUJ2KnElUuH-302" target="VCjqb7YWoMUJ2KnElUuH-306">
          <mxGeometry width="50" height="50" relative="1" as="geometry">
            <mxPoint x="4749.32" y="1802.68" as="sourcePoint" />
            <mxPoint x="4799.32" y="1752.68" as="targetPoint" />
          </mxGeometry>
        </mxCell>
        <mxCell id="VCjqb7YWoMUJ2KnElUuH-316" value="" style="endArrow=none;html=1;entryX=1;entryY=0.5;entryDx=0;entryDy=0;exitX=0;exitY=0.25;exitDx=0;exitDy=0;" edge="1" parent="1" source="VCjqb7YWoMUJ2KnElUuH-302" target="VCjqb7YWoMUJ2KnElUuH-305">
          <mxGeometry width="50" height="50" relative="1" as="geometry">
            <mxPoint x="4749.32" y="1802.68" as="sourcePoint" />
            <mxPoint x="4799.32" y="1752.68" as="targetPoint" />
          </mxGeometry>
        </mxCell>
        <mxCell id="VCjqb7YWoMUJ2KnElUuH-317" style="edgeStyle=orthogonalEdgeStyle;rounded=0;orthogonalLoop=1;jettySize=auto;html=1;entryX=0;entryY=0.5;entryDx=0;entryDy=0;shadow=0;startArrow=none;startFill=0;endArrow=none;endFill=0;strokeColor=#000000;exitX=1;exitY=0.5;exitDx=0;exitDy=0;" edge="1" parent="1" target="VCjqb7YWoMUJ2KnElUuH-302" source="VCjqb7YWoMUJ2KnElUuH-318">
          <mxGeometry relative="1" as="geometry">
            <mxPoint x="4210" y="1783" as="sourcePoint" />
          </mxGeometry>
        </mxCell>
        <mxCell id="VCjqb7YWoMUJ2KnElUuH-318" value="Add in" style="rhombus;whiteSpace=wrap;html=1;shadow=0;" vertex="1" parent="1">
          <mxGeometry x="4249.32" y="1742.68" width="80" height="80" as="geometry" />
        </mxCell>
        <mxCell id="VCjqb7YWoMUJ2KnElUuH-331" value="Supplier" style="rounded=0;whiteSpace=wrap;html=1;" vertex="1" parent="1">
          <mxGeometry x="4576.82" y="1522.68" width="80" height="40" as="geometry" />
        </mxCell>
        <mxCell id="VCjqb7YWoMUJ2KnElUuH-332" style="edgeStyle=orthogonalEdgeStyle;rounded=0;orthogonalLoop=1;jettySize=auto;html=1;entryX=0;entryY=0.5;entryDx=0;entryDy=0;shadow=0;startArrow=none;startFill=0;startSize=5;endArrow=none;endFill=0;strokeColor=#000000;" edge="1" parent="1" source="VCjqb7YWoMUJ2KnElUuH-334" target="VCjqb7YWoMUJ2KnElUuH-331">
          <mxGeometry relative="1" as="geometry" />
        </mxCell>
        <mxCell id="VCjqb7YWoMUJ2KnElUuH-333" value="" style="edgeStyle=orthogonalEdgeStyle;rounded=0;orthogonalLoop=1;jettySize=auto;html=1;shadow=0;startArrow=none;startFill=0;startSize=5;endArrow=none;endFill=0;strokeColor=#000000;" edge="1" parent="1" source="VCjqb7YWoMUJ2KnElUuH-334" target="VCjqb7YWoMUJ2KnElUuH-318">
          <mxGeometry relative="1" as="geometry" />
        </mxCell>
        <mxCell id="VCjqb7YWoMUJ2KnElUuH-334" value="Has" style="rhombus;whiteSpace=wrap;html=1;shadow=0;" vertex="1" parent="1">
          <mxGeometry x="4249.32" y="1502.68" width="80" height="80" as="geometry" />
        </mxCell>
        <mxCell id="VCjqb7YWoMUJ2KnElUuH-343" value="SELLER_ID" style="ellipse;whiteSpace=wrap;html=1;align=center;fontStyle=4;" vertex="1" parent="1">
          <mxGeometry x="4715.5" y="1503.68" width="100" height="40" as="geometry" />
        </mxCell>
        <mxCell id="VCjqb7YWoMUJ2KnElUuH-344" value="NAME" style="ellipse;whiteSpace=wrap;html=1;align=center;" vertex="1" parent="1">
          <mxGeometry x="4699.32" y="1452.68" width="100" height="40" as="geometry" />
        </mxCell>
        <mxCell id="VCjqb7YWoMUJ2KnElUuH-345" value="REVIEW" style="ellipse;whiteSpace=wrap;html=1;align=center;" vertex="1" parent="1">
          <mxGeometry x="4464.32" y="1450.68" width="100" height="40" as="geometry" />
        </mxCell>
        <mxCell id="VCjqb7YWoMUJ2KnElUuH-346" value="" style="endArrow=none;html=1;rounded=0;exitX=1;exitY=0.5;exitDx=0;exitDy=0;" edge="1" parent="1" source="VCjqb7YWoMUJ2KnElUuH-331" target="VCjqb7YWoMUJ2KnElUuH-343">
          <mxGeometry relative="1" as="geometry">
            <mxPoint x="4649.32" y="1652.68" as="sourcePoint" />
            <mxPoint x="4809.32" y="1652.68" as="targetPoint" />
          </mxGeometry>
        </mxCell>
        <mxCell id="VCjqb7YWoMUJ2KnElUuH-347" value="" style="endArrow=none;html=1;rounded=0;entryX=0;entryY=1;entryDx=0;entryDy=0;exitX=1;exitY=0;exitDx=0;exitDy=0;" edge="1" parent="1" source="VCjqb7YWoMUJ2KnElUuH-331" target="VCjqb7YWoMUJ2KnElUuH-344">
          <mxGeometry relative="1" as="geometry">
            <mxPoint x="4649.32" y="1652.68" as="sourcePoint" />
            <mxPoint x="4809.32" y="1652.68" as="targetPoint" />
          </mxGeometry>
        </mxCell>
        <mxCell id="VCjqb7YWoMUJ2KnElUuH-348" value="" style="endArrow=none;html=1;rounded=0;exitX=0.75;exitY=0;exitDx=0;exitDy=0;" edge="1" parent="1" source="VCjqb7YWoMUJ2KnElUuH-331">
          <mxGeometry relative="1" as="geometry">
            <mxPoint x="4649.32" y="1652.68" as="sourcePoint" />
            <mxPoint x="4685.436867472028" y="1450.0046987919588" as="targetPoint" />
          </mxGeometry>
        </mxCell>
        <mxCell id="VCjqb7YWoMUJ2KnElUuH-349" value="" style="endArrow=none;html=1;rounded=0;" edge="1" parent="1" target="VCjqb7YWoMUJ2KnElUuH-331">
          <mxGeometry relative="1" as="geometry">
            <mxPoint x="4589.925463959737" y="1450.553917675432" as="sourcePoint" />
            <mxPoint x="4780.68" y="1602.68" as="targetPoint" />
          </mxGeometry>
        </mxCell>
        <mxCell id="VCjqb7YWoMUJ2KnElUuH-350" value="" style="endArrow=none;html=1;rounded=0;" edge="1" parent="1" source="VCjqb7YWoMUJ2KnElUuH-345" target="VCjqb7YWoMUJ2KnElUuH-331">
          <mxGeometry relative="1" as="geometry">
            <mxPoint x="4649.32" y="1652.68" as="sourcePoint" />
            <mxPoint x="4809.32" y="1652.68" as="targetPoint" />
          </mxGeometry>
        </mxCell>
        <mxCell id="VCjqb7YWoMUJ2KnElUuH-351" value="M" style="text;html=1;strokeColor=none;fillColor=none;align=center;verticalAlign=middle;whiteSpace=wrap;rounded=0;" vertex="1" parent="1">
          <mxGeometry x="4513.32" y="1512.68" width="40" height="20" as="geometry" />
        </mxCell>
        <mxCell id="VCjqb7YWoMUJ2KnElUuH-352" value="M" style="text;html=1;strokeColor=none;fillColor=none;align=center;verticalAlign=middle;whiteSpace=wrap;rounded=0;" vertex="1" parent="1">
          <mxGeometry x="4129.32" y="1757.68" width="40" height="20" as="geometry" />
        </mxCell>
        <mxCell id="VCjqb7YWoMUJ2KnElUuH-353" value="1" style="text;html=1;strokeColor=none;fillColor=none;align=center;verticalAlign=middle;whiteSpace=wrap;rounded=0;" vertex="1" parent="1">
          <mxGeometry x="4339.32" y="1757.68" width="40" height="20" as="geometry" />
        </mxCell>
        <mxCell id="VCjqb7YWoMUJ2KnElUuH-354" value="1" style="text;html=1;strokeColor=none;fillColor=none;align=center;verticalAlign=middle;whiteSpace=wrap;rounded=0;" vertex="1" parent="1">
          <mxGeometry x="4659.32" y="1762.68" width="40" height="20" as="geometry" />
        </mxCell>
        <mxCell id="VCjqb7YWoMUJ2KnElUuH-361" value="" style="endArrow=none;html=1;strokeWidth=1;fontSize=12;entryX=0;entryY=0.5;entryDx=0;entryDy=0;exitX=0;exitY=0;exitDx=0;exitDy=0;" edge="1" parent="1" source="VCjqb7YWoMUJ2KnElUuH-15" target="VCjqb7YWoMUJ2KnElUuH-318">
          <mxGeometry width="50" height="50" relative="1" as="geometry">
            <mxPoint x="4777" y="625" as="sourcePoint" />
            <mxPoint x="4190" y="1780" as="targetPoint" />
            <Array as="points">
              <mxPoint x="4600" y="600" />
              <mxPoint x="4600" y="840" />
              <mxPoint x="4400" y="840" />
              <mxPoint x="4400" y="1390" />
              <mxPoint x="4200" y="1390" />
              <mxPoint x="4200" y="1783" />
            </Array>
          </mxGeometry>
        </mxCell>
        <mxCell id="VCjqb7YWoMUJ2KnElUuH-371" value="ADDRESS" style="ellipse;whiteSpace=wrap;html=1;align=center;" vertex="1" parent="1">
          <mxGeometry x="4655" y="1412.68" width="100" height="40" as="geometry" />
        </mxCell>
        <mxCell id="VCjqb7YWoMUJ2KnElUuH-372" value="RATING" style="ellipse;whiteSpace=wrap;html=1;align=center;" vertex="1" parent="1">
          <mxGeometry x="4520" y="1412.68" width="100" height="40" as="geometry" />
        </mxCell>
        <mxCell id="VCjqb7YWoMUJ2KnElUuH-374" value="&lt;font style=&quot;font-size: 16px;&quot;&gt;Admin&lt;/font&gt;" style="rounded=0;whiteSpace=wrap;html=1;fontSize=16;" vertex="1" parent="1">
          <mxGeometry x="3400" y="111" width="80" height="60" as="geometry" />
        </mxCell>
        <mxCell id="VCjqb7YWoMUJ2KnElUuH-375" value="USERNAME" style="ellipse;whiteSpace=wrap;html=1;align=center;fontStyle=4;fontSize=16;" vertex="1" parent="1">
          <mxGeometry x="3230" y="160" width="100" height="60" as="geometry" />
        </mxCell>
        <mxCell id="VCjqb7YWoMUJ2KnElUuH-376" value="PASSWORD" style="ellipse;whiteSpace=wrap;html=1;align=center;fontSize=16;" vertex="1" parent="1">
          <mxGeometry x="3520" y="160" width="100" height="60" as="geometry" />
        </mxCell>
        <mxCell id="VCjqb7YWoMUJ2KnElUuH-377" value="ADMIN_ID" style="ellipse;whiteSpace=wrap;html=1;align=center;fontStyle=4;fontSize=16;" vertex="1" parent="1">
          <mxGeometry x="3230" y="40" width="100" height="60" as="geometry" />
        </mxCell>
        <mxCell id="VCjqb7YWoMUJ2KnElUuH-378" value="TYPE" style="ellipse;whiteSpace=wrap;html=1;align=center;fontSize=16;" vertex="1" parent="1">
          <mxGeometry x="3520" y="40" width="100" height="60" as="geometry" />
        </mxCell>
        <mxCell id="VCjqb7YWoMUJ2KnElUuH-382" value="" style="endArrow=none;html=1;strokeWidth=1;fontSize=17;exitX=1;exitY=0.75;exitDx=0;exitDy=0;entryX=0;entryY=0.5;entryDx=0;entryDy=0;" edge="1" parent="1" source="VCjqb7YWoMUJ2KnElUuH-374" target="VCjqb7YWoMUJ2KnElUuH-376">
          <mxGeometry width="50" height="50" relative="1" as="geometry">
            <mxPoint x="3490" y="185" as="sourcePoint" />
            <mxPoint x="3510" y="180" as="targetPoint" />
          </mxGeometry>
        </mxCell>
        <mxCell id="VCjqb7YWoMUJ2KnElUuH-383" value="" style="endArrow=none;html=1;strokeWidth=1;fontSize=17;exitX=1;exitY=0.25;exitDx=0;exitDy=0;entryX=0;entryY=0.5;entryDx=0;entryDy=0;" edge="1" parent="1" source="VCjqb7YWoMUJ2KnElUuH-374" target="VCjqb7YWoMUJ2KnElUuH-378">
          <mxGeometry width="50" height="50" relative="1" as="geometry">
            <mxPoint x="3490" y="140" as="sourcePoint" />
            <mxPoint x="3540" y="90" as="targetPoint" />
          </mxGeometry>
        </mxCell>
        <mxCell id="VCjqb7YWoMUJ2KnElUuH-384" value="" style="endArrow=none;html=1;strokeWidth=1;fontSize=16;exitX=1;exitY=0.5;exitDx=0;exitDy=0;" edge="1" parent="1" source="VCjqb7YWoMUJ2KnElUuH-375">
          <mxGeometry width="50" height="50" relative="1" as="geometry">
            <mxPoint x="3350" y="200" as="sourcePoint" />
            <mxPoint x="3400" y="150" as="targetPoint" />
          </mxGeometry>
        </mxCell>
        <mxCell id="VCjqb7YWoMUJ2KnElUuH-386" value="" style="endArrow=none;html=1;strokeWidth=1;fontSize=17;exitX=0;exitY=0.25;exitDx=0;exitDy=0;" edge="1" parent="1" source="VCjqb7YWoMUJ2KnElUuH-374">
          <mxGeometry width="50" height="50" relative="1" as="geometry">
            <mxPoint x="3279.999999999999" y="128" as="sourcePoint" />
            <mxPoint x="3329.999999999999" y="78" as="targetPoint" />
          </mxGeometry>
        </mxCell>
        <mxCell id="VCjqb7YWoMUJ2KnElUuH-389" value="" style="endArrow=none;html=1;exitX=0.5;exitY=1;exitDx=0;exitDy=0;entryX=0.5;entryY=0;entryDx=0;entryDy=0;" edge="1" parent="1" source="VCjqb7YWoMUJ2KnElUuH-15" target="VCjqb7YWoMUJ2KnElUuH-234">
          <mxGeometry width="50" height="50" relative="1" as="geometry">
            <mxPoint x="4817.24" y="670" as="sourcePoint" />
            <mxPoint x="4740" y="735" as="targetPoint" />
          </mxGeometry>
        </mxCell>
        <mxCell id="VCjqb7YWoMUJ2KnElUuH-390" value="" style="endArrow=none;html=1;exitX=0.5;exitY=1;exitDx=0;exitDy=0;entryX=0.5;entryY=0;entryDx=0;entryDy=0;" edge="1" parent="1" source="VCjqb7YWoMUJ2KnElUuH-15" target="VCjqb7YWoMUJ2KnElUuH-235">
          <mxGeometry width="50" height="50" relative="1" as="geometry">
            <mxPoint x="4848.16" y="670" as="sourcePoint" />
            <mxPoint x="4850" y="958" as="targetPoint" />
            <Array as="points">
              <mxPoint x="4838" y="800" />
              <mxPoint x="4930" y="800" />
            </Array>
          </mxGeometry>
        </mxCell>
        <mxCell id="VCjqb7YWoMUJ2KnElUuH-391" value="" style="endArrow=none;html=1;entryX=0.5;entryY=0;entryDx=0;entryDy=0;exitX=0.5;exitY=1;exitDx=0;exitDy=0;" edge="1" parent="1" source="VCjqb7YWoMUJ2KnElUuH-15" target="VCjqb7YWoMUJ2KnElUuH-236">
          <mxGeometry width="50" height="50" relative="1" as="geometry">
            <mxPoint x="4870" y="670" as="sourcePoint" />
            <mxPoint x="4940" y="1139" as="targetPoint" />
            <Array as="points">
              <mxPoint x="4838" y="760" />
              <mxPoint x="5049" y="760" />
            </Array>
          </mxGeometry>
        </mxCell>
        <mxCell id="VCjqb7YWoMUJ2KnElUuH-393" value="&lt;font style=&quot;font-size: 12px&quot;&gt;Add&lt;/font&gt;" style="rhombus;whiteSpace=wrap;html=1;shadow=0;" vertex="1" parent="1">
          <mxGeometry x="3400" y="360" width="80" height="80" as="geometry" />
        </mxCell>
        <mxCell id="VCjqb7YWoMUJ2KnElUuH-394" value="" style="endArrow=none;html=1;strokeWidth=1;fontSize=16;entryX=0.5;entryY=1;entryDx=0;entryDy=0;exitX=0.5;exitY=0;exitDx=0;exitDy=0;" edge="1" parent="1" source="VCjqb7YWoMUJ2KnElUuH-393" target="VCjqb7YWoMUJ2KnElUuH-374">
          <mxGeometry width="50" height="50" relative="1" as="geometry">
            <mxPoint x="3420" y="290" as="sourcePoint" />
            <mxPoint x="3470" y="240" as="targetPoint" />
          </mxGeometry>
        </mxCell>
        <mxCell id="VCjqb7YWoMUJ2KnElUuH-395" value="" style="endArrow=none;html=1;strokeWidth=1;fontSize=16;entryX=0.5;entryY=1;entryDx=0;entryDy=0;exitX=0.5;exitY=0;exitDx=0;exitDy=0;" edge="1" parent="1" source="VCjqb7YWoMUJ2KnElUuH-1" target="VCjqb7YWoMUJ2KnElUuH-393">
          <mxGeometry width="50" height="50" relative="1" as="geometry">
            <mxPoint x="3230" y="530" as="sourcePoint" />
            <mxPoint x="3280" y="480" as="targetPoint" />
            <Array as="points">
              <mxPoint x="3190" y="560" />
              <mxPoint x="3440" y="560" />
            </Array>
          </mxGeometry>
        </mxCell>
        <mxCell id="VCjqb7YWoMUJ2KnElUuH-396" value="&lt;font style=&quot;font-size: 12px&quot;&gt;Add&lt;/font&gt;" style="rhombus;whiteSpace=wrap;html=1;shadow=0;" vertex="1" parent="1">
          <mxGeometry x="3670" y="360" width="80" height="80" as="geometry" />
        </mxCell>
        <mxCell id="VCjqb7YWoMUJ2KnElUuH-397" value="" style="endArrow=none;html=1;strokeWidth=1;fontSize=16;entryX=1;entryY=1;entryDx=0;entryDy=0;exitX=0.5;exitY=0;exitDx=0;exitDy=0;" edge="1" parent="1" source="VCjqb7YWoMUJ2KnElUuH-396" target="VCjqb7YWoMUJ2KnElUuH-374">
          <mxGeometry width="50" height="50" relative="1" as="geometry">
            <mxPoint x="3450" y="370" as="sourcePoint" />
            <mxPoint x="3450" y="181" as="targetPoint" />
            <Array as="points">
              <mxPoint x="3710" y="320" />
              <mxPoint x="3480" y="320" />
            </Array>
          </mxGeometry>
        </mxCell>
        <mxCell id="VCjqb7YWoMUJ2KnElUuH-398" value="" style="endArrow=none;html=1;strokeWidth=1;fontSize=16;entryX=0.5;entryY=1;entryDx=0;entryDy=0;exitX=0.5;exitY=0;exitDx=0;exitDy=0;" edge="1" parent="1" source="VCjqb7YWoMUJ2KnElUuH-3" target="VCjqb7YWoMUJ2KnElUuH-396">
          <mxGeometry width="50" height="50" relative="1" as="geometry">
            <mxPoint x="3680" y="560" as="sourcePoint" />
            <mxPoint x="3730" y="510" as="targetPoint" />
          </mxGeometry>
        </mxCell>
      </root>
    </mxGraphModel>
  </diagram>
</mxfile>
